<?xml version="1.0" standalone="no"?><!DOCTYPE svg PUBLIC "-//W3C//DTD SVG 1.1//EN" "http://www.w3.org/Graphics/SVG/1.1/DTD/svg11.dtd"><svg class="icon" height="512" viewBox="0 0 1024 1024" version="1.1" xmlns="http://www.w3.org/2000/svg"><path d="M851 269.6c9.4-11.8 15-27 15-43.2 0-38.4-31.2-69.8-69.6-69.8-16.4 0-31.4 5.6-43.2 15-68-48.4-150-75.6-239.8-75.6C283.6 96 96 281 96 511.2S283.4 928 513.2 928 928 741.4 928 511.2c0-90-28.6-173.4-77-241.6z m-67.4 513.8c-35.2 35.2-76.4 63.2-122.2 82.6-47.4 20-96.4 30.4-148.4 30.4-51.8 0-103.4-10.2-150.8-30.4-45.8-19.4-86.8-47-122.2-82.6-35.2-35.2-63-76.6-82.4-122.4-20-47.4-30.2-97.8-30.2-149.8 0-51.8 10.2-102.4 30.2-149.8 19.4-45.8 47-87 82.4-122.4s76.4-63.2 122.2-82.6c47.4-20 98.8-28.2 150.8-28.2 51.8 0 101 8 148.4 28.2 25.4 10.8 49.4 24.2 71.8 40-4.2 9-6.6 19-6.6 29.8 0 38.4 31.2 69.8 69.6 69.8 10.6 0 20.6-2.4 29.8-6.6 15.8 22.4 29.2 46.4 40 72 20 47.4 30.2 97.8 30.2 149.8 0 51.8-10.2 102.4-30.2 149.8-19.4 45.8-47 87-82.4 122.4z" fill="#4d8dff" /><path d="M513 320.2c-106 0-192 85.6-192 191.8s85.8 192.2 192 192.2c106 0 192-86 192-192.2s-86-191.8-192-191.8z" fill="#4d8dff" /></svg>
