<svg height="240" width="240">
    <path xmlns="http://www.w3.org/2000/svg" inkscape:connector-curvature="0"
        xmlns:inkscape="http://www.inkscape.org/namespaces/inkscape" d="m 120,0 -3.73068,3.507891 -3.73055,-3.480007 -3.48003,3.730531 -3.98118,-3.229482 -3.22941,3.953411 -4.14831,-3.006771 -3.0067,4.148192 -4.34309,-2.728363 -2.7006,4.343092 -4.50999,-2.449954 -2.44998,4.48232 -4.64943,-2.171618 -2.17142,4.64936 -4.76076,-1.865326 -1.86532,4.760728 -4.87203,-1.559057 -1.55913,4.872096 -4.98332,-1.252837 -1.2529,4.983344 -5.01123,-0.946473 -0.94645,5.011253 -5.09488,-0.612561 -0.61242,5.06702 -5.12267,-0.27848 -0.30622,5.122597 -5.12264,0 0.0277,5.12262 -5.09488,0.334104 0.33415,5.094808 -5.09476,0.668161 0.66813,5.094832 -5.01122,0.974357 0.94657,5.039136 -4.95556,1.280577 1.30851,4.955652 -4.87205,1.58687 1.5868,4.872099 -4.73282,1.89313 1.89314,4.76066 -4.62153,2.19933 2.19946,4.62158 -4.48232,2.47776 2.47776,4.48223 -4.31518,2.75624 2.78398,4.31528 -4.14816,3.00675 3.0346,4.14819 -3.92548,3.28515 3.25723,3.92553 -3.70265,3.53568 3.50784,3.70279 -3.50784,3.75839 3.78625,3.48008 -3.28511,3.98113 3.95327,3.22948 -2.97891,4.14824 4.14819,3.00675 -2.72829,4.34309 4.343,2.70048 -2.44986,4.51013 4.48218,2.44995 -2.14364,4.62148 4.64933,2.19943 -1.89313,4.73277 4.78854,1.89314 -1.58692,4.8721 4.87202,1.55905 -1.25276,4.98347 4.95553,1.22497 -0.94657,5.03905 5.06695,0.94659 -0.64035,5.06692 5.09486,0.64037 -0.30632,5.12263 5.09486,0.27831 0.0276,5.12262 5.12266,-0.0276 0.33401,5.12262 5.12267,-0.33408 0.66814,5.06692 5.06707,-0.64027 0.97435,5.01125 5.01125,-0.97446 1.30849,4.95558 4.95565,-1.30846 1.5868,4.87203 4.87214,-1.58685 1.89314,4.73285 4.76061,-1.89317 2.19936,4.6215 4.62162,-2.19943 2.47779,4.48235 4.48217,-2.47784 2.7562,4.3153 4.3153,-2.75624 3.03461,4.12038 4.1204,-3.00677 3.28511,3.92555 3.92548,-3.28518 3.50782,3.7306 3.73068,-3.53575 3.75846,3.50787 3.48003,-3.75839 3.95327,3.25727 3.25732,-3.95332 4.14831,3.00675 2.97879,-4.14817 4.34309,2.70048 2.7562,-4.31521 4.48232,2.44996 2.44995,-4.51014 4.64934,2.17153 2.14373,-4.64936 4.78854,1.89313 1.83742,-4.78854 4.87202,1.55906 1.58692,-4.872 4.95553,1.28065 1.25291,-4.98346 5.03904,0.94656 0.94657,-5.03913 5.09474,0.61258 0.61256,-5.06704 5.09473,0.30629 0.33413,-5.12262 5.12255,0 -0.0276,-5.12262 5.09474,-0.36187 -0.33401,-5.09481 5.06695,-0.66818 -0.66814,-5.06692 5.03904,-0.97439 -0.97435,-5.03913 4.95553,-1.28065 -1.2807,-4.95558 4.84424,-1.61473 -1.58692,-4.84421 4.76073,-1.89314 -1.9209,-4.76066 4.64919,-2.19943 -2.22715,-4.6215 4.48232,-2.47783 -2.47788,-4.48225 4.3153,-2.78401 -2.7562,-4.28742 4.1204,-3.03463 -3.00681,-4.12038 3.92557,-3.31295 -3.25744,-3.92552 3.70287,-3.5078 -3.50794,-3.70281 3.48003,-3.75839 -3.73056,-3.50797 3.22941,-3.95324 -3.95324,-3.22948 3.0067,-4.17613 -4.17598,-2.97886 2.72827,-4.34309 -4.3431,-2.72836 2.44996,-4.48225 -4.45439,-2.44993 2.14376,-4.64938 -4.62165,-2.17155 1.83754,-4.76066 -4.76073,-1.86532 1.58692,-4.872122 -4.87205,-1.559057 1.225,-4.983369 -4.95567,-1.224977 0.94669,-5.066924 -5.03916,-0.918685 0.64034,-5.094832 -5.09485,-0.612488 0.30634,-5.122597 -5.12267,-0.30622 -0.0276,-5.12262 -5.12267,0.02762 -0.30634,-5.122596 -5.12252,0.361868 -0.64035,-5.066852 -5.09476,0.640276 -0.97436,-5.039136 -5.03916,1.002265 -1.28069,-4.955484 -4.95554,1.280553 -1.58701,-4.872 -4.87193,1.614729 -1.92104,-4.760728 -4.76061,1.921022 -2.19934,-4.649288 -4.62164,2.227218 -2.47776,-4.48232 -4.4822,2.477814 -2.72851,-4.31528 -4.343,2.756223 -3.00682,-4.14824 -4.14816,3.034631 -3.25723,-3.953412 -3.92557,3.285251 -3.53563,-3.702815 z m -3.50796,7.934539 c 61.22985,0 110.86027,49.658114 110.86027,110.887923 0,61.22971 -49.63042,110.86011 -110.86027,110.86011 -61.22972,0 -110.86014,-49.6304 -110.86014,-110.86011 0,-61.229809 49.63054,-110.887923 110.86014,-110.887923 z m 0,3.173714 c -59.48031,0 -107.68633,48.233854 -107.68633,107.714209 0,59.48035 48.20602,107.68632 107.68633,107.68632 59.48044,0 107.71423,-48.20597 107.71423,-107.68632 0,-59.480355 -48.23391,-107.714209 -107.71423,-107.714209 z m 0,2.227218 c 58.24347,0 105.45905,47.243615 105.45905,105.486991 0,58.24325 -47.21558,105.43129 -105.45905,105.43129 -58.24333,0 -105.43128,-47.18804 -105.43128,-105.43129 0,-58.243376 47.18795,-105.486991 105.43128,-105.486991 z m 0,18.374608 -3.70275,8.992451 -9.74407,0.278409 7.37772,6.319713 -2.72841,9.354344 8.2965,-5.094737 8.04572,5.512397 -2.28284,-9.493524 7.73964,-5.957917 -9.74417,-0.723737 -3.25734,-9.187399 z m -42.2615,7.934538 -3.17393,7.711803 -8.32417,0.222712 6.34753,5.373145 -2.33857,7.99021 7.07151,-4.370975 6.84867,4.705056 -1.92105,-8.073767 6.57036,-5.066853 -8.29636,-0.640372 -2.78399,-7.850959 z m 86.86179,0 -3.20174,7.711803 -8.29636,0.222712 6.31973,5.373145 -2.33868,7.99021 7.07162,-4.370975 6.87646,4.705056 -1.94883,-8.073767 6.57036,-5.066853 -8.29648,-0.640372 -2.75608,-7.850959 z m -85.46992,38.475285 c -6.21864,1e-4 -11.69396,0.99185 -16.45351,3.00677 -3.57839,1.49393 -6.8887,3.78467 -9.91118,6.87661 -2.98783,3.092 -5.36213,6.60478 -7.09917,10.49576 -2.32776,5.28073 -3.48018,11.78966 -3.48018,19.57177 0,12.15949 3.34536,21.7272 10.05041,28.67543 6.70506,6.91356 15.75592,10.35661 27.11635,10.35661 11.22158,0 20.1609,-3.46396 26.86596,-10.41221 6.70506,-6.98306 10.0782,-16.64858 10.0782,-28.98179 0,-12.43736 -3.38727,-22.13791 -10.16159,-29.12097 -6.73998,-6.98299 -15.74901,-10.46788 -27.00529,-10.46798 z m 49.36091,1.30856 0,76.39381 15.42358,0 0,-23.10755 12.50025,-12.75077 20.99165,35.85832 19.96147,0 -30.31796,-46.66035 28.75895,-29.73346 -20.741,0 -31.15336,33.90941 0,-33.90941 -15.42358,0 z m -49.19377,11.85987 c 6.35761,1e-4 11.43491,2.15114 15.25654,6.45897 3.85623,4.30797 5.79069,10.84479 5.79081,19.59956 0,8.85912 -1.96963,15.51468 -5.93013,19.96157 -3.9257,4.41211 -8.96807,6.62599 -15.11722,6.62599 -6.14929,0 -11.23347,-2.23479 -15.22866,-6.68168 -3.9953,-4.48163 -5.98572,-11.03241 -5.98572,-19.68314 0,-8.78953 1.95537,-15.3682 5.84652,-19.71093 3.89101,-4.3773 9.01011,-6.57024 15.36786,-6.57034 z m 8.82541,85.0244 -6.84879,4.70498 -7.07138,-4.34309 2.33856,7.96233 -6.31985,5.40102 8.29659,0.2505 3.17372,7.65616 2.81189,-7.8231 8.26857,-0.66816 -6.57023,-5.03914 1.92092,-8.1015 z m 86.86179,0 -6.8767,4.70498 -7.07126,-4.34309 2.33856,7.96233 -6.31986,5.40102 8.29648,0.2505 3.20163,7.65616 2.78398,-7.8231 8.26857,-0.66816 -6.57023,-5.03914 1.94883,-8.1015 z m -43.48661,4.23174 -8.01805,5.51231 -8.32417,-5.09474 2.7562,9.35434 -7.40563,6.31972 9.74419,0.25059 3.70274,9.04815 3.28513,-9.21519 9.71626,-0.75174 -7.71185,-5.95775 2.25518,-9.46569 z" id="text3082-9-0" style="color:red;font-size:119.79653931px;font-style:normal;font-variant:normal;font-weight:bold;font-stretch:normal;text-align:center;line-height:125%;letter-spacing:0px;word-spacing:0px;text-anchor:middle;stroke:none;font-family:Arial;-inkscape-font-specification:Arial Bold"/>
</svg>
